<svg xmlns="http://www.w3.org/2000/svg" xmlns:xlink="http://www.w3.org/1999/xlink" width="1700" zoomAndPan="magnify" viewBox="0 0 1275 449.999984" height="600" preserveAspectRatio="xMidYMid meet" version="1.0"><defs><g/><clipPath id="74af018901"><path d="M 244.648438 73.878906 L 267.738281 73.878906 L 267.738281 97.148438 L 244.648438 97.148438 Z M 244.648438 73.878906 " clip-rule="nonzero"/></clipPath><clipPath id="27f51e0486"><path d="M 251.546875 73.878906 L 252.710938 82.734375 L 244.648438 86.582031 L 253.429688 88.210938 L 254.59375 97.066406 L 258.859375 89.21875 L 267.648438 90.847656 L 261.5 84.363281 L 265.765625 76.515625 L 257.703125 80.363281 Z M 251.546875 73.878906 " clip-rule="nonzero"/></clipPath><clipPath id="be6c6bc8f4"><path d="M 293.976562 15.878906 L 329.257812 15.878906 L 329.257812 49.457031 L 293.976562 49.457031 Z M 293.976562 15.878906 " clip-rule="nonzero"/></clipPath><clipPath id="6a0d492beb"><path d="M 311.558594 15.878906 L 315.710938 28.65625 L 329.148438 28.65625 L 318.28125 36.554688 L 322.429688 49.332031 L 311.558594 41.433594 L 300.699219 49.332031 L 304.847656 36.554688 L 293.976562 28.65625 L 307.410156 28.65625 Z M 311.558594 15.878906 " clip-rule="nonzero"/></clipPath><clipPath id="5296f0fd83"><path d="M 325.613281 171.273438 L 475.984375 171.273438 L 475.984375 427.070312 L 325.613281 427.070312 Z M 325.613281 171.273438 " clip-rule="nonzero"/></clipPath><clipPath id="a9899a96c8"><path d="M 325.839844 427.035156 L 325.839844 267.644531 C 340.992188 236.34375 475.238281 171.484375 475.238281 171.484375 C 475.238281 171.484375 444.59375 376.925781 444.59375 377.375 C 444.59375 377.375 341 395.742188 325.847656 427.042969 " clip-rule="nonzero"/></clipPath><clipPath id="7cacfd71b5"><path d="M 325.613281 194.15625 L 502.953125 194.15625 L 502.953125 428.703125 L 325.613281 428.703125 Z M 325.613281 194.15625 " clip-rule="nonzero"/></clipPath><clipPath id="571f782eae"><path d="M 325.839844 428.535156 L 325.839844 267.644531 C 333.421875 251.996094 502.566406 194.199219 502.566406 194.199219 C 502.566406 194.199219 456.609375 376 456.609375 376.222656 C 456.609375 376.222656 333.421875 412.882812 325.839844 428.535156 " clip-rule="nonzero"/></clipPath><clipPath id="dca47c5bf1"><path d="M 325.613281 216.222656 L 529.921875 216.222656 L 529.921875 430.339844 L 325.613281 430.339844 Z M 325.613281 216.222656 " clip-rule="nonzero"/></clipPath><clipPath id="bdebecd45a"><path d="M 468.625 375.074219 L 325.839844 430.03125 L 325.839844 267.644531 L 529.914062 216.921875 Z M 468.625 375.074219 " clip-rule="nonzero"/></clipPath><clipPath id="eb67c7df20"><path d="M 176.058594 170.457031 L 326.429688 170.457031 L 326.429688 427 L 176.058594 427 Z M 176.058594 170.457031 " clip-rule="nonzero"/></clipPath><clipPath id="6df1a74264"><path d="M 326.199219 426.511719 L 326.199219 267.121094 C 311.050781 235.828125 176.804688 170.960938 176.804688 170.960938 C 176.804688 170.960938 207.449219 376.402344 207.449219 376.851562 C 207.449219 376.851562 311.042969 395.21875 326.191406 426.519531 " clip-rule="nonzero"/></clipPath><clipPath id="a96442edfd"><path d="M 149.089844 193.339844 L 326.429688 193.339844 L 326.429688 428.703125 L 149.089844 428.703125 Z M 149.089844 193.339844 " clip-rule="nonzero"/></clipPath><clipPath id="715ceccb15"><path d="M 326.199219 428.007812 L 326.199219 267.121094 C 318.621094 251.472656 149.464844 193.675781 149.464844 193.675781 C 149.464844 193.675781 195.433594 375.476562 195.433594 375.707031 C 195.433594 375.707031 318.621094 412.367188 326.199219 428.019531 " clip-rule="nonzero"/></clipPath><clipPath id="780a22ba2b"><path d="M 122.121094 216.222656 L 326.429688 216.222656 L 326.429688 429.519531 L 122.121094 429.519531 Z M 122.121094 216.222656 " clip-rule="nonzero"/></clipPath><clipPath id="41535fb379"><path d="M 183.417969 374.558594 L 326.199219 429.507812 L 326.199219 267.121094 L 122.128906 216.398438 Z M 183.417969 374.558594 " clip-rule="nonzero"/></clipPath><clipPath id="ae941dd5cc"><path d="M 211.199219 110 L 322 110 L 322 237 L 211.199219 237 Z M 211.199219 110 " clip-rule="nonzero"/></clipPath><clipPath id="d635eb638a"><path d="M 274.742188 110.511719 C 301.351562 130.304688 295.292969 181.480469 295.292969 181.480469 C 250.175781 162.710938 211.960938 173.285156 211.960938 173.285156 C 289.753906 179.425781 321.675781 236.746094 321.675781 236.746094 C 324.941406 126.203125 274.742188 110.503906 274.742188 110.503906 " clip-rule="nonzero"/></clipPath><clipPath id="b0a8ae5437"><path d="M 249 130.410156 L 287 130.410156 L 287 168.820312 L 249 168.820312 Z M 249 130.410156 " clip-rule="nonzero"/></clipPath><clipPath id="824f053cdb"><path d="M 257.667969 161.597656 L 257.722656 162.226562 C 258.273438 162.710938 258.691406 162.75 259.023438 162.578125 L 260.851562 165.84375 L 262.960938 163.4375 L 259.492188 162.0625 C 259.613281 161.710938 259.523438 161.300781 259.230469 161.050781 L 258.640625 160.769531 L 254.890625 157.832031 L 260.097656 155.410156 L 261.496094 156.636719 C 262.046875 163.101562 267.464844 168.1875 274.070312 168.1875 C 281.042969 168.1875 286.691406 162.53125 286.691406 155.566406 C 286.691406 148.609375 281.058594 142.96875 274.109375 142.941406 L 272.359375 141.40625 L 275.402344 130.632812 L 255.875 138.800781 L 249.078125 160.535156 L 253.894531 158.289062 Z M 257.667969 161.597656 " clip-rule="nonzero"/></clipPath><clipPath id="1128d7246f"><path d="M 330 110 L 440 110 L 440 237 L 330 237 Z M 330 110 " clip-rule="nonzero"/></clipPath><clipPath id="e826a4f759"><path d="M 377.210938 110.511719 C 350.601562 130.304688 356.660156 181.480469 356.660156 181.480469 C 401.773438 162.710938 439.992188 173.285156 439.992188 173.285156 C 362.199219 179.425781 330.277344 236.746094 330.277344 236.746094 C 327.011719 126.203125 377.210938 110.503906 377.210938 110.503906 " clip-rule="nonzero"/></clipPath><clipPath id="02733c93e9"><path d="M 365 130.410156 L 403 130.410156 L 403 168.820312 L 365 168.820312 Z M 365 130.410156 " clip-rule="nonzero"/></clipPath><clipPath id="b7f7bda2cc"><path d="M 394.292969 161.597656 L 394.238281 162.226562 C 393.6875 162.710938 393.269531 162.75 392.933594 162.578125 L 391.109375 165.84375 L 388.996094 163.4375 L 392.46875 162.0625 C 392.347656 161.710938 392.4375 161.300781 392.738281 161.050781 L 393.328125 160.769531 L 397.078125 157.832031 L 391.871094 155.410156 L 390.472656 156.636719 C 389.921875 163.101562 384.503906 168.1875 377.898438 168.1875 C 370.925781 168.1875 365.277344 162.53125 365.277344 155.566406 C 365.277344 148.609375 370.910156 142.96875 377.859375 142.941406 L 379.609375 141.40625 L 376.566406 130.632812 L 396.09375 138.800781 L 402.886719 160.535156 L 398.074219 158.289062 Z M 394.292969 161.597656 " clip-rule="nonzero"/></clipPath><clipPath id="eeb1b1f52f"><path d="M 301.097656 61.765625 L 373 61.765625 L 373 159.832031 L 301.097656 159.832031 Z M 301.097656 61.765625 " clip-rule="nonzero"/></clipPath><clipPath id="96c039f196"><path d="M 309.117188 61.769531 C 300.015625 84.476562 323.566406 114.328125 323.566406 114.328125 C 344.699219 85.121094 372.808594 77.027344 372.808594 77.027344 C 326.257812 110.898438 328.296875 159.257812 328.296875 159.257812 C 283.605469 91.007812 309.117188 61.769531 309.117188 61.769531 " clip-rule="nonzero"/></clipPath><clipPath id="1e4dd2dda4"><path d="M 316 72 L 345 72 L 345 99.355469 L 316 99.355469 Z M 316 72 " clip-rule="nonzero"/></clipPath><clipPath id="596c165dd7"><path d="M 339.558594 87.308594 L 339.773438 87.726562 L 339.363281 88.421875 L 339.199219 91.195312 L 336.941406 90.492188 L 338.59375 88.28125 C 338.378906 88.109375 338.28125 87.816406 338.363281 87.539062 L 338.625 87.136719 L 339.855469 83.847656 L 335.648438 84.328125 L 335.238281 85.648438 C 337.390625 89.925781 335.941406 95.207031 331.785156 97.761719 C 327.394531 100.453125 321.667969 99.078125 318.972656 94.691406 C 316.289062 90.3125 317.65625 84.597656 322.019531 81.898438 L 322.527344 80.253906 L 316.453125 74.652344 L 331.890625 72.253906 L 344.542969 83.296875 L 340.65625 83.746094 Z M 339.558594 87.308594 " clip-rule="nonzero"/></clipPath><clipPath id="89bd354f81"><path d="M 391 69.121094 L 414.691406 69.121094 L 414.691406 92.820312 L 391 92.820312 Z M 391 69.121094 " clip-rule="nonzero"/></clipPath><clipPath id="b8dc6905a3"><path d="M 407.488281 69.457031 L 406.316406 78.3125 L 414.378906 82.160156 L 405.597656 83.789062 L 404.433594 92.644531 L 400.171875 84.796875 L 391.386719 86.425781 L 397.535156 79.941406 L 393.269531 72.09375 L 401.332031 75.9375 Z M 407.488281 69.457031 " clip-rule="nonzero"/></clipPath></defs><g clip-path="url(#74af018901)"><g clip-path="url(#27f51e0486)"><path fill="#006699" d="M 244.648438 73.878906 L 267.648438 73.878906 L 267.648438 97.058594 L 244.648438 97.058594 Z M 244.648438 73.878906 " fill-opacity="1" fill-rule="nonzero"/></g></g><g clip-path="url(#be6c6bc8f4)"><g clip-path="url(#6a0d492beb)"><path fill="#f7a61b" d="M 293.976562 15.878906 L 329.125 15.878906 L 329.125 49.328125 L 293.976562 49.328125 Z M 293.976562 15.878906 " fill-opacity="1" fill-rule="nonzero"/></g></g><g clip-path="url(#5296f0fd83)"><g clip-path="url(#a9899a96c8)"><path fill="#0099cc" d="M 118.035156 57.679688 L 534.007812 57.679688 L 534.007812 434.425781 L 118.035156 434.425781 Z M 118.035156 57.679688 " fill-opacity="1" fill-rule="nonzero"/></g></g><g clip-path="url(#7cacfd71b5)"><g clip-path="url(#571f782eae)"><path fill="#006699" d="M 118.035156 57.679688 L 534.007812 57.679688 L 534.007812 434.425781 L 118.035156 434.425781 Z M 118.035156 57.679688 " fill-opacity="1" fill-rule="nonzero"/></g></g><g clip-path="url(#dca47c5bf1)"><g clip-path="url(#bdebecd45a)"><path fill="#003366" d="M 118.035156 57.679688 L 534.007812 57.679688 L 534.007812 434.425781 L 118.035156 434.425781 Z M 118.035156 57.679688 " fill-opacity="1" fill-rule="nonzero"/></g></g><g clip-path="url(#eb67c7df20)"><g clip-path="url(#6df1a74264)"><path fill="#0099cc" d="M 118.035156 57.679688 L 534.007812 57.679688 L 534.007812 434.425781 L 118.035156 434.425781 Z M 118.035156 57.679688 " fill-opacity="1" fill-rule="nonzero"/></g></g><g clip-path="url(#a96442edfd)"><g clip-path="url(#715ceccb15)"><path fill="#006699" d="M 118.035156 57.679688 L 534.007812 57.679688 L 534.007812 434.425781 L 118.035156 434.425781 Z M 118.035156 57.679688 " fill-opacity="1" fill-rule="nonzero"/></g></g><g clip-path="url(#780a22ba2b)"><g clip-path="url(#41535fb379)"><path fill="#003366" d="M 118.035156 57.679688 L 534.007812 57.679688 L 534.007812 434.425781 L 118.035156 434.425781 Z M 118.035156 57.679688 " fill-opacity="1" fill-rule="nonzero"/></g></g><g clip-path="url(#ae941dd5cc)"><g clip-path="url(#d635eb638a)"><path fill="#0099cc" d="M 118.035156 57.679688 L 534.007812 57.679688 L 534.007812 434.425781 L 118.035156 434.425781 Z M 118.035156 57.679688 " fill-opacity="1" fill-rule="nonzero"/></g></g><g clip-path="url(#b0a8ae5437)"><g clip-path="url(#824f053cdb)"><path fill="#0099cc" d="M 118.035156 57.679688 L 534.007812 57.679688 L 534.007812 434.425781 L 118.035156 434.425781 Z M 118.035156 57.679688 " fill-opacity="1" fill-rule="nonzero"/></g></g><g clip-path="url(#1128d7246f)"><g clip-path="url(#e826a4f759)"><path fill="#0099cc" d="M 118.035156 57.679688 L 534.007812 57.679688 L 534.007812 434.425781 L 118.035156 434.425781 Z M 118.035156 57.679688 " fill-opacity="1" fill-rule="nonzero"/></g></g><g clip-path="url(#02733c93e9)"><g clip-path="url(#b7f7bda2cc)"><path fill="#0099cc" d="M 118.035156 57.679688 L 534.007812 57.679688 L 534.007812 434.425781 L 118.035156 434.425781 Z M 118.035156 57.679688 " fill-opacity="1" fill-rule="nonzero"/></g></g><g clip-path="url(#eeb1b1f52f)"><g clip-path="url(#96c039f196)"><path fill="#f7a61b" d="M 118.035156 57.679688 L 534.007812 57.679688 L 534.007812 434.425781 L 118.035156 434.425781 Z M 118.035156 57.679688 " fill-opacity="1" fill-rule="nonzero"/></g></g><g clip-path="url(#1e4dd2dda4)"><g clip-path="url(#596c165dd7)"><path fill="#f7a61b" d="M 118.035156 57.679688 L 534.007812 57.679688 L 534.007812 434.425781 L 118.035156 434.425781 Z M 118.035156 57.679688 " fill-opacity="1" fill-rule="nonzero"/></g></g><g clip-path="url(#89bd354f81)"><g clip-path="url(#b8dc6905a3)"><path fill="#003366" d="M 118.035156 57.679688 L 534.007812 57.679688 L 534.007812 434.425781 L 118.035156 434.425781 Z M 118.035156 57.679688 " fill-opacity="1" fill-rule="nonzero"/></g></g><g fill="#000000" fill-opacity="1"><g transform="translate(618.143423, 269.330109)"><g><path d="M 1.328125 -83.140625 L 28.765625 -83.140625 L 28.765625 -75.015625 L 20.21875 -75.015625 L 20.21875 0 L 10.484375 0 L 10.484375 -75.015625 L 1.328125 -75.015625 Z M 1.328125 -83.140625 "/></g></g></g><g fill="#000000" fill-opacity="1"><g transform="translate(648.234447, 269.330109)"><g><path d="M 29.09375 -70.859375 L 38.828125 -70.859375 L 38.828125 0 L 29.09375 0 L 29.09375 -7.234375 C 28.34375 -4.835938 27.046875 -2.875 25.203125 -1.34375 C 23.359375 0.175781 20.882812 0.9375 17.78125 0.9375 C 14.6875 0.9375 12.023438 -0.34375 9.796875 -2.90625 C 7.578125 -5.46875 6.46875 -9.410156 6.46875 -14.734375 L 6.46875 -70.859375 L 16.15625 -70.859375 L 16.15625 -15.828125 C 16.15625 -10.253906 18.1875 -7.46875 22.25 -7.46875 C 24.519531 -7.46875 26.226562 -8.253906 27.375 -9.828125 C 28.519531 -11.398438 29.09375 -13.476562 29.09375 -16.0625 Z M 29.09375 -70.859375 "/></g></g></g><g fill="#000000" fill-opacity="1"><g transform="translate(693.961456, 269.330109)"><g><path d="M 7.09375 -70.859375 L 16.765625 -70.859375 L 16.765625 0 L 7.09375 0 Z M 7.09375 -86.265625 L 16.8125 -86.265625 L 16.8125 -77.375 L 7.09375 -77.375 Z M 7.09375 -86.265625 "/></g></g></g><g fill="#000000" fill-opacity="1"><g transform="translate(717.722502, 269.330109)"><g><path d="M 8.640625 -83.140625 L 18.328125 -83.140625 L 18.328125 -70.296875 L 25.984375 -70.296875 L 25.984375 -63.109375 L 18.328125 -63.109375 L 18.328125 -11.390625 C 18.328125 -9.554688 18.75 -8.410156 19.59375 -7.953125 C 20.445312 -7.503906 22.609375 -7.28125 26.078125 -7.28125 L 26.078125 0.421875 L 19.421875 0.421875 C 14.941406 0.421875 12.023438 -0.382812 10.671875 -2 C 9.316406 -3.625 8.640625 -6.46875 8.640625 -10.53125 L 8.640625 -63.109375 L 2.171875 -63.109375 L 2.171875 -70.296875 L 8.640625 -70.296875 Z M 8.640625 -83.140625 "/></g></g></g><g fill="#000000" fill-opacity="1"><g transform="translate(746.632554, 269.330109)"><g><path d="M 7.09375 -70.859375 L 16.765625 -70.859375 L 16.765625 0 L 7.09375 0 Z M 7.09375 -86.265625 L 16.8125 -86.265625 L 16.8125 -77.375 L 7.09375 -77.375 Z M 7.09375 -86.265625 "/></g></g></g><g fill="#000000" fill-opacity="1"><g transform="translate(770.393599, 269.330109)"><g><path d="M 5.859375 -48.515625 C 5.859375 -60.015625 8.503906 -67.179688 13.796875 -70.015625 C 15.929688 -71.148438 18.421875 -71.71875 21.265625 -71.71875 C 28.660156 -71.71875 33.382812 -68.738281 35.4375 -62.78125 C 36.695312 -59.03125 37.328125 -54.273438 37.328125 -48.515625 L 37.328125 -23.4375 C 37.328125 -13.476562 35.988281 -6.941406 33.3125 -3.828125 C 30.632812 -0.710938 26.757812 0.84375 21.6875 0.84375 C 14.28125 0.84375 9.570312 -2.300781 7.5625 -8.59375 C 6.425781 -12.21875 5.859375 -17.164062 5.859375 -23.4375 Z M 27.59375 -50.453125 C 27.59375 -57.191406 26.628906 -61.285156 24.703125 -62.734375 C 23.921875 -63.335938 22.898438 -63.640625 21.640625 -63.640625 C 19.085938 -63.640625 17.441406 -62.488281 16.703125 -60.1875 C 15.960938 -57.882812 15.59375 -54.640625 15.59375 -50.453125 L 15.59375 -20.734375 C 15.59375 -13.773438 16.566406 -9.570312 18.515625 -8.125 C 19.304688 -7.53125 20.285156 -7.234375 21.453125 -7.234375 C 21.515625 -7.234375 21.578125 -7.234375 21.640625 -7.234375 C 24.128906 -7.234375 25.742188 -8.40625 26.484375 -10.75 C 27.222656 -13.09375 27.59375 -16.421875 27.59375 -20.734375 Z M 27.59375 -50.453125 "/></g></g></g><g fill="#000000" fill-opacity="1"><g transform="translate(813.569722, 269.330109)"><g><path d="M 16.625 -63.34375 C 17.257812 -65.644531 18.640625 -67.625 20.765625 -69.28125 C 22.890625 -70.9375 25.535156 -71.765625 28.703125 -71.765625 C 31.867188 -71.765625 34.4375 -70.476562 36.40625 -67.90625 C 38.375 -65.34375 39.359375 -61.539062 39.359375 -56.5 L 39.359375 0 L 29.671875 0 L 29.671875 -56.453125 C 29.671875 -58.847656 29.117188 -60.644531 28.015625 -61.84375 C 26.910156 -63.039062 25.378906 -63.640625 23.421875 -63.640625 C 21.472656 -63.640625 19.851562 -62.960938 18.5625 -61.609375 C 17.269531 -60.253906 16.625 -58.222656 16.625 -55.515625 L 16.625 0 L 6.9375 0 L 6.9375 -70.859375 L 16.625 -70.859375 Z M 16.625 -63.34375 "/></g></g></g><g fill="#000000" fill-opacity="1"><g transform="translate(859.391208, 269.330109)"><g/></g></g><g fill="#000000" fill-opacity="1"><g transform="translate(883.152239, 269.330109)"><g><path d="M 42.1875 -83.140625 L 54.421875 -83.140625 L 54.421875 0 L 45.734375 0 L 45.734375 -33.359375 L 46.53125 -64.4375 L 35.234375 -0.140625 L 26.40625 -0.140625 L 14.640625 -64.4375 L 15.453125 -33.359375 L 15.453125 0 L 6.796875 0 L 6.796875 -83.140625 L 18.984375 -83.140625 L 30.890625 -14.78125 Z M 42.1875 -83.140625 "/></g></g></g><g fill="#000000" fill-opacity="1"><g transform="translate(944.373524, 269.330109)"><g><path d="M 27.6875 -39.0625 C 23.71875 -37.269531 21.070312 -35.882812 19.75 -34.90625 C 18.425781 -33.9375 17.425781 -32.796875 16.75 -31.484375 C 16.070312 -30.179688 15.734375 -28.03125 15.734375 -25.03125 L 15.734375 -18.46875 C 15.734375 -14.34375 16.09375 -11.4375 16.8125 -9.75 C 17.539062 -8.070312 18.785156 -7.234375 20.546875 -7.234375 C 22.316406 -7.234375 23.828125 -7.742188 25.078125 -8.765625 C 26.335938 -9.785156 27.207031 -10.894531 27.6875 -12.09375 Z M 6.84375 -50.359375 C 6.84375 -58.921875 8.179688 -64.617188 10.859375 -67.453125 C 13.535156 -70.296875 17.347656 -71.71875 22.296875 -71.71875 C 27.242188 -71.71875 30.828125 -70.519531 33.046875 -68.125 C 35.265625 -65.726562 36.625 -61.882812 37.125 -56.59375 C 37.351562 -54.320312 37.46875 -51.535156 37.46875 -48.234375 L 37.46875 0 L 27.734375 0 L 27.734375 -6.140625 C 27.222656 -4.441406 26.117188 -2.890625 24.421875 -1.484375 C 22.722656 -0.0859375 20.613281 0.609375 18.09375 0.609375 C 10.0625 0.609375 6.015625 -5.65625 5.953125 -18.1875 L 5.953125 -25.078125 C 5.953125 -29.140625 7.0625 -32.613281 9.28125 -35.5 C 11.5 -38.382812 17.632812 -41.671875 27.6875 -45.359375 L 27.6875 -50.828125 C 27.6875 -56.910156 27.242188 -60.566406 26.359375 -61.796875 C 25.472656 -63.023438 23.96875 -63.640625 21.84375 -63.640625 C 19.71875 -63.640625 18.289062 -62.707031 17.5625 -60.84375 C 16.84375 -58.988281 16.484375 -55.632812 16.484375 -50.78125 L 16.484375 -48.328125 L 6.84375 -48.328125 Z M 6.84375 -50.359375 "/></g></g></g><g fill="#000000" fill-opacity="1"><g transform="translate(988.116495, 269.330109)"><g><path d="M 35.1875 -16.25 C 35.15625 -4.789062 30.101562 0.9375 20.03125 0.9375 C 14.925781 0.9375 11.097656 -0.679688 8.546875 -3.921875 C 5.992188 -7.160156 4.71875 -12.375 4.71875 -19.5625 L 4.71875 -24.890625 L 14.125 -24.890625 L 14.125 -19.609375 C 14.125 -11.421875 15.984375 -7.328125 19.703125 -7.328125 C 21.742188 -7.328125 23.210938 -7.988281 24.109375 -9.3125 C 25.015625 -10.632812 25.46875 -12.929688 25.46875 -16.203125 C 25.46875 -21.335938 23.101562 -26.21875 18.375 -30.84375 C 18.03125 -31.195312 17.210938 -31.976562 15.921875 -33.1875 C 14.628906 -34.394531 13.78125 -35.207031 13.375 -35.625 C 7.226562 -41.476562 4.15625 -47.945312 4.15625 -55.03125 C 4.15625 -60.632812 5.476562 -64.816406 8.125 -67.578125 C 10.769531 -70.335938 14.535156 -71.71875 19.421875 -71.71875 C 22.722656 -71.71875 25.414062 -71.039062 27.5 -69.6875 C 31.84375 -66.84375 34.015625 -60.148438 34.015625 -49.609375 L 34.015625 -46.203125 L 24.796875 -46.203125 L 24.796875 -51.109375 C 24.796875 -55.234375 24.394531 -58.3125 23.59375 -60.34375 C 22.789062 -62.375 21.410156 -63.390625 19.453125 -63.390625 C 17.503906 -63.390625 16.039062 -62.773438 15.0625 -61.546875 C 14.09375 -60.328125 13.609375 -58.25 13.609375 -55.3125 C 13.609375 -50.71875 15.765625 -46.28125 20.078125 -42 L 25.171875 -37.21875 C 31.847656 -30.832031 35.1875 -23.84375 35.1875 -16.25 Z M 35.1875 -16.25 "/></g></g></g><g fill="#000000" fill-opacity="1"><g transform="translate(1026.143612, 269.330109)"><g><path d="M 8.640625 -83.140625 L 18.328125 -83.140625 L 18.328125 -70.296875 L 25.984375 -70.296875 L 25.984375 -63.109375 L 18.328125 -63.109375 L 18.328125 -11.390625 C 18.328125 -9.554688 18.75 -8.410156 19.59375 -7.953125 C 20.445312 -7.503906 22.609375 -7.28125 26.078125 -7.28125 L 26.078125 0.421875 L 19.421875 0.421875 C 14.941406 0.421875 12.023438 -0.382812 10.671875 -2 C 9.316406 -3.625 8.640625 -6.46875 8.640625 -10.53125 L 8.640625 -63.109375 L 2.171875 -63.109375 L 2.171875 -70.296875 L 8.640625 -70.296875 Z M 8.640625 -83.140625 "/></g></g></g><g fill="#000000" fill-opacity="1"><g transform="translate(1055.053663, 269.330109)"><g><path d="M 5.859375 -48.890625 C 5.859375 -57.835938 7.460938 -64.0625 10.671875 -67.5625 C 13.191406 -70.332031 16.910156 -71.71875 21.828125 -71.71875 C 28.941406 -71.71875 33.410156 -68.644531 35.234375 -62.5 C 36.242188 -59.03125 36.75 -54.351562 36.75 -48.46875 L 36.75 -35.09375 L 15.59375 -35.09375 L 15.59375 -20.96875 C 15.59375 -14.832031 16.078125 -11.007812 17.046875 -9.5 C 18.023438 -7.988281 19.566406 -7.234375 21.671875 -7.234375 C 23.785156 -7.234375 25.195312 -8.113281 25.90625 -9.875 C 26.613281 -11.632812 26.984375 -13.546875 27.015625 -15.609375 C 27.046875 -17.671875 27.0625 -19.410156 27.0625 -20.828125 L 27.0625 -26.546875 L 36.5625 -26.546875 L 36.5625 -23.53125 C 36.5625 -16 36.035156 -10.722656 34.984375 -7.703125 C 33.929688 -4.679688 32.332031 -2.5 30.1875 -1.15625 C 28.039062 0.175781 25.382812 0.84375 22.21875 0.84375 C 19.0625 0.84375 16.53125 0.441406 14.625 -0.359375 C 12.71875 -1.160156 11.203125 -2.222656 10.078125 -3.546875 C 8.960938 -4.867188 7.976562 -6.976562 7.125 -9.875 C 6.28125 -12.769531 5.859375 -17.429688 5.859375 -23.859375 Z M 27.0625 -50.6875 C 27.0625 -55.726562 26.878906 -58.765625 26.515625 -59.796875 C 26.160156 -60.835938 25.695312 -61.753906 25.125 -62.546875 C 24.5625 -63.335938 23.539062 -63.734375 22.0625 -63.734375 C 19.226562 -63.734375 17.429688 -62.539062 16.671875 -60.15625 C 15.921875 -57.78125 15.546875 -54.515625 15.546875 -50.359375 L 15.546875 -41.671875 L 27.0625 -41.671875 Z M 27.0625 -50.6875 "/></g></g></g><g fill="#000000" fill-opacity="1"><g transform="translate(1097.237781, 269.330109)"><g><path d="M 28.71875 -71.71875 C 28.84375 -71.71875 28.90625 -69.671875 28.90625 -65.578125 L 28.859375 -63.5 C 23.191406 -63.5 19.128906 -61.53125 16.671875 -57.59375 L 16.671875 0 L 6.9375 0 L 6.9375 -70.859375 L 16.671875 -70.859375 L 16.671875 -62.96875 C 17.492188 -65.738281 18.9375 -67.890625 21 -69.421875 C 23.0625 -70.953125 25.632812 -71.71875 28.71875 -71.71875 Z M 28.71875 -71.71875 "/></g></g></g><g fill="#000000" fill-opacity="1"><g transform="translate(1127.990132, 269.330109)"><g><path d="M 35.1875 -16.25 C 35.15625 -4.789062 30.101562 0.9375 20.03125 0.9375 C 14.925781 0.9375 11.097656 -0.679688 8.546875 -3.921875 C 5.992188 -7.160156 4.71875 -12.375 4.71875 -19.5625 L 4.71875 -24.890625 L 14.125 -24.890625 L 14.125 -19.609375 C 14.125 -11.421875 15.984375 -7.328125 19.703125 -7.328125 C 21.742188 -7.328125 23.210938 -7.988281 24.109375 -9.3125 C 25.015625 -10.632812 25.46875 -12.929688 25.46875 -16.203125 C 25.46875 -21.335938 23.101562 -26.21875 18.375 -30.84375 C 18.03125 -31.195312 17.210938 -31.976562 15.921875 -33.1875 C 14.628906 -34.394531 13.78125 -35.207031 13.375 -35.625 C 7.226562 -41.476562 4.15625 -47.945312 4.15625 -55.03125 C 4.15625 -60.632812 5.476562 -64.816406 8.125 -67.578125 C 10.769531 -70.335938 14.535156 -71.71875 19.421875 -71.71875 C 22.722656 -71.71875 25.414062 -71.039062 27.5 -69.6875 C 31.84375 -66.84375 34.015625 -60.148438 34.015625 -49.609375 L 34.015625 -46.203125 L 24.796875 -46.203125 L 24.796875 -51.109375 C 24.796875 -55.234375 24.394531 -58.3125 23.59375 -60.34375 C 22.789062 -62.375 21.410156 -63.390625 19.453125 -63.390625 C 17.503906 -63.390625 16.039062 -62.773438 15.0625 -61.546875 C 14.09375 -60.328125 13.609375 -58.25 13.609375 -55.3125 C 13.609375 -50.71875 15.765625 -46.28125 20.078125 -42 L 25.171875 -37.21875 C 31.847656 -30.832031 35.1875 -23.84375 35.1875 -16.25 Z M 35.1875 -16.25 "/></g></g></g><g fill="#333333" fill-opacity="1"><g transform="translate(699.442666, 306.832033)"><g><path d="M 15.28125 -31.359375 L 15.28125 -27.703125 L 10.015625 -27.703125 L 10.015625 0 L 5.515625 0 L 5.515625 -27.703125 L 0.25 -27.703125 L 0.25 -31.359375 Z M 15.28125 -31.359375 "/></g></g></g><g fill="#333333" fill-opacity="1"><g transform="translate(719.976518, 306.832033)"><g><path d="M 11.578125 -24.453125 L 16.078125 -24.453125 L 16.078125 0 L 11.578125 0 L 11.578125 -1.953125 C 11.140625 -0.648438 10.101562 0 8.46875 0 L 6.65625 0 C 3.65625 0 2.15625 -1.46875 2.15625 -4.40625 L 2.15625 -24.453125 L 6.65625 -24.453125 L 6.65625 -5.109375 C 6.65625 -4.503906 6.753906 -4.109375 6.953125 -3.921875 C 7.160156 -3.742188 7.566406 -3.65625 8.171875 -3.65625 L 9.921875 -3.65625 C 10.515625 -3.65625 10.9375 -3.785156 11.1875 -4.046875 C 11.445312 -4.316406 11.578125 -4.769531 11.578125 -5.40625 Z M 11.578125 -24.453125 "/></g></g></g><g fill="#333333" fill-opacity="1"><g transform="translate(743.264635, 306.832033)"><g><path d="M 10.46875 -20.78125 L 7.109375 -20.78125 L 7.109375 -5.3125 C 7.109375 -4.707031 7.203125 -4.3125 7.390625 -4.125 C 7.578125 -3.945312 7.96875 -3.859375 8.5625 -3.859375 L 10.46875 -3.859375 L 10.46875 0 L 7.265625 0 C 4.128906 0 2.5625 -1.46875 2.5625 -4.40625 L 2.5625 -20.78125 L 0.25 -20.78125 L 0.25 -24.453125 L 2.5625 -24.453125 L 2.5625 -28.609375 L 7.109375 -28.609375 L 7.109375 -24.453125 L 10.46875 -24.453125 Z M 10.46875 -20.78125 "/></g></g></g><g fill="#333333" fill-opacity="1"><g transform="translate(759.241436, 306.832033)"><g><path d="M 6.5625 -24.453125 L 11.921875 -24.453125 C 15.023438 -24.453125 16.578125 -22.960938 16.578125 -19.984375 L 16.578125 -4.40625 C 16.578125 -1.46875 15.023438 0 11.921875 0 L 6.5625 0 C 3.488281 0 1.953125 -1.46875 1.953125 -4.40625 L 1.953125 -19.984375 C 1.953125 -22.960938 3.488281 -24.453125 6.5625 -24.453125 Z M 12.125 -5.0625 L 12.125 -19.390625 C 12.125 -19.984375 12.019531 -20.378906 11.8125 -20.578125 C 11.613281 -20.785156 11.21875 -20.890625 10.625 -20.890625 L 7.859375 -20.890625 C 7.265625 -20.890625 6.875 -20.785156 6.6875 -20.578125 C 6.5 -20.378906 6.40625 -19.984375 6.40625 -19.390625 L 6.40625 -5.0625 C 6.40625 -4.457031 6.5 -4.054688 6.6875 -3.859375 C 6.875 -3.660156 7.265625 -3.5625 7.859375 -3.5625 L 10.625 -3.5625 C 11.21875 -3.5625 11.613281 -3.660156 11.8125 -3.859375 C 12.019531 -4.054688 12.125 -4.457031 12.125 -5.0625 Z M 12.125 -5.0625 "/></g></g></g><g fill="#333333" fill-opacity="1"><g transform="translate(782.779941, 306.832033)"><g><path d="M 10.671875 -24.5 L 11.671875 -24.5 L 11.671875 -20.59375 L 9.875 -20.59375 C 7.769531 -20.59375 6.71875 -19.351562 6.71875 -16.875 L 6.71875 0 L 2.203125 0 L 2.203125 -24.453125 L 6.71875 -24.453125 L 6.71875 -21.4375 C 6.976562 -22.3125 7.453125 -23.039062 8.140625 -23.625 C 8.828125 -24.207031 9.671875 -24.5 10.671875 -24.5 Z M 10.671875 -24.5 "/></g></g></g><g fill="#333333" fill-opacity="1"><g transform="translate(799.708206, 306.832033)"><g><path d="M 2.109375 -29.109375 L 2.109375 -33.5625 L 6.8125 -33.5625 L 6.8125 -29.109375 Z M 6.71875 0 L 2.203125 0 L 2.203125 -24.453125 L 6.71875 -24.453125 Z M 6.71875 0 "/></g></g></g><g fill="#333333" fill-opacity="1"><g transform="translate(813.631817, 306.832033)"><g><path d="M 9.8125 -24.453125 L 11.578125 -24.453125 C 14.609375 -24.453125 16.125 -22.960938 16.125 -19.984375 L 16.125 0 L 11.625 0 L 11.625 -19.34375 C 11.625 -19.9375 11.519531 -20.320312 11.3125 -20.5 C 11.113281 -20.6875 10.71875 -20.78125 10.125 -20.78125 L 8.359375 -20.78125 C 7.765625 -20.78125 7.34375 -20.644531 7.09375 -20.375 C 6.84375 -20.113281 6.71875 -19.664062 6.71875 -19.03125 L 6.71875 0 L 2.203125 0 L 2.203125 -24.453125 L 6.71875 -24.453125 L 6.71875 -22.484375 C 7.144531 -23.796875 8.175781 -24.453125 9.8125 -24.453125 Z M 9.8125 -24.453125 "/></g></g></g><g fill="#333333" fill-opacity="1"><g transform="translate(836.919934, 306.832033)"><g><path d="M 11.328125 -24.453125 L 15.828125 -24.453125 L 15.828125 2.5 C 15.828125 5.4375 14.257812 6.90625 11.125 6.90625 L 2.75 6.90625 L 2.75 3.359375 L 9.8125 3.359375 C 10.414062 3.359375 10.816406 3.253906 11.015625 3.046875 C 11.222656 2.847656 11.328125 2.46875 11.328125 1.90625 L 11.328125 -2.25 C 10.890625 -0.945312 9.851562 -0.296875 8.21875 -0.296875 L 6.40625 -0.296875 C 3.40625 -0.296875 1.90625 -1.785156 1.90625 -4.765625 L 1.90625 -19.984375 C 1.90625 -22.960938 3.40625 -24.453125 6.40625 -24.453125 L 8.21875 -24.453125 C 9.851562 -24.453125 10.890625 -23.796875 11.328125 -22.484375 Z M 7.921875 -3.953125 L 9.671875 -3.953125 C 10.265625 -3.953125 10.6875 -4.085938 10.9375 -4.359375 C 11.195312 -4.628906 11.328125 -5.078125 11.328125 -5.703125 L 11.328125 -19.03125 C 11.328125 -19.664062 11.195312 -20.113281 10.9375 -20.375 C 10.6875 -20.644531 10.265625 -20.78125 9.671875 -20.78125 L 7.921875 -20.78125 C 7.316406 -20.78125 6.910156 -20.6875 6.703125 -20.5 C 6.503906 -20.320312 6.40625 -19.9375 6.40625 -19.34375 L 6.40625 -5.40625 C 6.40625 -4.84375 6.503906 -4.457031 6.703125 -4.25 C 6.910156 -4.050781 7.316406 -3.953125 7.921875 -3.953125 Z M 7.921875 -3.953125 "/></g></g></g><g fill="#333333" fill-opacity="1"><g transform="translate(859.957662, 306.832033)"><g/></g></g><g fill="#333333" fill-opacity="1"><g transform="translate(872.22872, 306.832033)"><g><path d="M 10.46875 -20.78125 L 7.109375 -20.78125 L 7.109375 -5.3125 C 7.109375 -4.707031 7.203125 -4.3125 7.390625 -4.125 C 7.578125 -3.945312 7.96875 -3.859375 8.5625 -3.859375 L 10.46875 -3.859375 L 10.46875 0 L 7.265625 0 C 4.128906 0 2.5625 -1.46875 2.5625 -4.40625 L 2.5625 -20.78125 L 0.25 -20.78125 L 0.25 -24.453125 L 2.5625 -24.453125 L 2.5625 -28.609375 L 7.109375 -28.609375 L 7.109375 -24.453125 L 10.46875 -24.453125 Z M 10.46875 -20.78125 "/></g></g></g><g fill="#333333" fill-opacity="1"><g transform="translate(888.205521, 306.832033)"><g><path d="M 6.5625 -24.453125 L 11.921875 -24.453125 C 15.023438 -24.453125 16.578125 -22.960938 16.578125 -19.984375 L 16.578125 -4.40625 C 16.578125 -1.46875 15.023438 0 11.921875 0 L 6.5625 0 C 3.488281 0 1.953125 -1.46875 1.953125 -4.40625 L 1.953125 -19.984375 C 1.953125 -22.960938 3.488281 -24.453125 6.5625 -24.453125 Z M 12.125 -5.0625 L 12.125 -19.390625 C 12.125 -19.984375 12.019531 -20.378906 11.8125 -20.578125 C 11.613281 -20.785156 11.21875 -20.890625 10.625 -20.890625 L 7.859375 -20.890625 C 7.265625 -20.890625 6.875 -20.785156 6.6875 -20.578125 C 6.5 -20.378906 6.40625 -19.984375 6.40625 -19.390625 L 6.40625 -5.0625 C 6.40625 -4.457031 6.5 -4.054688 6.6875 -3.859375 C 6.875 -3.660156 7.265625 -3.5625 7.859375 -3.5625 L 10.625 -3.5625 C 11.21875 -3.5625 11.613281 -3.660156 11.8125 -3.859375 C 12.019531 -4.054688 12.125 -4.457031 12.125 -5.0625 Z M 12.125 -5.0625 "/></g></g></g><g fill="#333333" fill-opacity="1"><g transform="translate(911.744026, 306.832033)"><g/></g></g><g fill="#333333" fill-opacity="1"><g transform="translate(924.015084, 306.832033)"><g><path d="M 10.375 -4.90625 L 10.375 -8.96875 C 10.375 -9.570312 10.269531 -9.960938 10.0625 -10.140625 C 9.863281 -10.328125 9.460938 -10.421875 8.859375 -10.421875 L 6.3125 -10.421875 C 3.207031 -10.421875 1.65625 -11.890625 1.65625 -14.828125 L 1.65625 -19.984375 C 1.65625 -22.960938 3.207031 -24.453125 6.3125 -24.453125 L 9.96875 -24.453125 C 13.101562 -24.453125 14.671875 -22.960938 14.671875 -19.984375 L 14.671875 -17.640625 L 10.265625 -17.640625 L 10.265625 -19.53125 C 10.265625 -20.132812 10.164062 -20.523438 9.96875 -20.703125 C 9.769531 -20.890625 9.367188 -20.984375 8.765625 -20.984375 L 7.5625 -20.984375 C 6.957031 -20.984375 6.554688 -20.890625 6.359375 -20.703125 C 6.160156 -20.523438 6.0625 -20.132812 6.0625 -19.53125 L 6.0625 -15.328125 C 6.0625 -14.722656 6.160156 -14.328125 6.359375 -14.140625 C 6.554688 -13.960938 6.957031 -13.875 7.5625 -13.875 L 10.171875 -13.875 C 13.242188 -13.875 14.78125 -12.390625 14.78125 -9.421875 L 14.78125 -4.40625 C 14.78125 -1.46875 13.226562 0 10.125 0 L 6.40625 0 C 3.300781 0 1.75 -1.46875 1.75 -4.40625 L 1.75 -6.8125 L 6.15625 -6.8125 L 6.15625 -4.90625 C 6.15625 -4.300781 6.253906 -3.90625 6.453125 -3.71875 C 6.660156 -3.539062 7.066406 -3.453125 7.671875 -3.453125 L 8.859375 -3.453125 C 9.460938 -3.453125 9.863281 -3.539062 10.0625 -3.71875 C 10.269531 -3.90625 10.375 -4.300781 10.375 -4.90625 Z M 10.375 -4.90625 "/></g></g></g><g fill="#333333" fill-opacity="1"><g transform="translate(945.450337, 306.832033)"><g><path d="M 11.578125 -24.453125 L 16.078125 -24.453125 L 16.078125 0 L 11.578125 0 L 11.578125 -1.953125 C 11.140625 -0.648438 10.101562 0 8.46875 0 L 6.65625 0 C 3.65625 0 2.15625 -1.46875 2.15625 -4.40625 L 2.15625 -24.453125 L 6.65625 -24.453125 L 6.65625 -5.109375 C 6.65625 -4.503906 6.753906 -4.109375 6.953125 -3.921875 C 7.160156 -3.742188 7.566406 -3.65625 8.171875 -3.65625 L 9.921875 -3.65625 C 10.515625 -3.65625 10.9375 -3.785156 11.1875 -4.046875 C 11.445312 -4.316406 11.578125 -4.769531 11.578125 -5.40625 Z M 11.578125 -24.453125 "/></g></g></g><g fill="#333333" fill-opacity="1"><g transform="translate(968.738454, 306.832033)"><g><path d="M 16.03125 -16.734375 L 11.578125 -16.734375 L 11.578125 -19.34375 C 11.578125 -19.9375 11.472656 -20.320312 11.265625 -20.5 C 11.066406 -20.6875 10.664062 -20.78125 10.0625 -20.78125 L 7.921875 -20.78125 C 7.316406 -20.78125 6.910156 -20.6875 6.703125 -20.5 C 6.503906 -20.320312 6.40625 -19.9375 6.40625 -19.34375 L 6.40625 -5.109375 C 6.40625 -4.503906 6.503906 -4.109375 6.703125 -3.921875 C 6.910156 -3.742188 7.316406 -3.65625 7.921875 -3.65625 L 10.0625 -3.65625 C 10.664062 -3.65625 11.066406 -3.742188 11.265625 -3.921875 C 11.472656 -4.109375 11.578125 -4.503906 11.578125 -5.109375 L 11.578125 -7.71875 L 16.03125 -7.71875 L 16.03125 -4.40625 C 16.03125 -1.46875 14.460938 0 11.328125 0 L 6.5625 0 C 3.457031 0 1.90625 -1.46875 1.90625 -4.40625 L 1.90625 -19.984375 C 1.90625 -22.960938 3.457031 -24.453125 6.5625 -24.453125 L 11.328125 -24.453125 C 14.460938 -24.453125 16.03125 -22.960938 16.03125 -19.984375 Z M 16.03125 -16.734375 "/></g></g></g><g fill="#333333" fill-opacity="1"><g transform="translate(991.325496, 306.832033)"><g><path d="M 16.03125 -16.734375 L 11.578125 -16.734375 L 11.578125 -19.34375 C 11.578125 -19.9375 11.472656 -20.320312 11.265625 -20.5 C 11.066406 -20.6875 10.664062 -20.78125 10.0625 -20.78125 L 7.921875 -20.78125 C 7.316406 -20.78125 6.910156 -20.6875 6.703125 -20.5 C 6.503906 -20.320312 6.40625 -19.9375 6.40625 -19.34375 L 6.40625 -5.109375 C 6.40625 -4.503906 6.503906 -4.109375 6.703125 -3.921875 C 6.910156 -3.742188 7.316406 -3.65625 7.921875 -3.65625 L 10.0625 -3.65625 C 10.664062 -3.65625 11.066406 -3.742188 11.265625 -3.921875 C 11.472656 -4.109375 11.578125 -4.503906 11.578125 -5.109375 L 11.578125 -7.71875 L 16.03125 -7.71875 L 16.03125 -4.40625 C 16.03125 -1.46875 14.460938 0 11.328125 0 L 6.5625 0 C 3.457031 0 1.90625 -1.46875 1.90625 -4.40625 L 1.90625 -19.984375 C 1.90625 -22.960938 3.457031 -24.453125 6.5625 -24.453125 L 11.328125 -24.453125 C 14.460938 -24.453125 16.03125 -22.960938 16.03125 -19.984375 Z M 16.03125 -16.734375 "/></g></g></g><g fill="#333333" fill-opacity="1"><g transform="translate(1013.912538, 306.832033)"><g><path d="M 6.765625 -24.453125 L 11.671875 -24.453125 C 14.804688 -24.453125 16.375 -22.960938 16.375 -19.984375 L 16.375 -10.8125 L 6.515625 -10.8125 L 6.515625 -5.015625 C 6.515625 -4.441406 6.613281 -4.054688 6.8125 -3.859375 C 7.007812 -3.660156 7.410156 -3.5625 8.015625 -3.5625 L 10.3125 -3.5625 C 10.914062 -3.5625 11.316406 -3.660156 11.515625 -3.859375 C 11.722656 -4.054688 11.828125 -4.457031 11.828125 -5.0625 L 11.828125 -7.0625 L 16.234375 -7.0625 L 16.234375 -4.40625 C 16.234375 -1.46875 14.679688 0 11.578125 0 L 6.765625 0 C 3.660156 0 2.109375 -1.46875 2.109375 -4.40625 L 2.109375 -19.984375 C 2.109375 -22.960938 3.660156 -24.453125 6.765625 -24.453125 Z M 6.515625 -14.125 L 11.921875 -14.125 L 11.921875 -19.4375 C 11.921875 -20 11.828125 -20.378906 11.640625 -20.578125 C 11.460938 -20.785156 11.070312 -20.890625 10.46875 -20.890625 L 8.015625 -20.890625 C 7.410156 -20.890625 7.007812 -20.785156 6.8125 -20.578125 C 6.613281 -20.378906 6.515625 -20 6.515625 -19.4375 Z M 6.515625 -14.125 "/></g></g></g><g fill="#333333" fill-opacity="1"><g transform="translate(1036.950266, 306.832033)"><g><path d="M 10.375 -4.90625 L 10.375 -8.96875 C 10.375 -9.570312 10.269531 -9.960938 10.0625 -10.140625 C 9.863281 -10.328125 9.460938 -10.421875 8.859375 -10.421875 L 6.3125 -10.421875 C 3.207031 -10.421875 1.65625 -11.890625 1.65625 -14.828125 L 1.65625 -19.984375 C 1.65625 -22.960938 3.207031 -24.453125 6.3125 -24.453125 L 9.96875 -24.453125 C 13.101562 -24.453125 14.671875 -22.960938 14.671875 -19.984375 L 14.671875 -17.640625 L 10.265625 -17.640625 L 10.265625 -19.53125 C 10.265625 -20.132812 10.164062 -20.523438 9.96875 -20.703125 C 9.769531 -20.890625 9.367188 -20.984375 8.765625 -20.984375 L 7.5625 -20.984375 C 6.957031 -20.984375 6.554688 -20.890625 6.359375 -20.703125 C 6.160156 -20.523438 6.0625 -20.132812 6.0625 -19.53125 L 6.0625 -15.328125 C 6.0625 -14.722656 6.160156 -14.328125 6.359375 -14.140625 C 6.554688 -13.960938 6.957031 -13.875 7.5625 -13.875 L 10.171875 -13.875 C 13.242188 -13.875 14.78125 -12.390625 14.78125 -9.421875 L 14.78125 -4.40625 C 14.78125 -1.46875 13.226562 0 10.125 0 L 6.40625 0 C 3.300781 0 1.75 -1.46875 1.75 -4.40625 L 1.75 -6.8125 L 6.15625 -6.8125 L 6.15625 -4.90625 C 6.15625 -4.300781 6.253906 -3.90625 6.453125 -3.71875 C 6.660156 -3.539062 7.066406 -3.453125 7.671875 -3.453125 L 8.859375 -3.453125 C 9.460938 -3.453125 9.863281 -3.539062 10.0625 -3.71875 C 10.269531 -3.90625 10.375 -4.300781 10.375 -4.90625 Z M 10.375 -4.90625 "/></g></g></g><g fill="#333333" fill-opacity="1"><g transform="translate(1058.385533, 306.832033)"><g><path d="M 10.375 -4.90625 L 10.375 -8.96875 C 10.375 -9.570312 10.269531 -9.960938 10.0625 -10.140625 C 9.863281 -10.328125 9.460938 -10.421875 8.859375 -10.421875 L 6.3125 -10.421875 C 3.207031 -10.421875 1.65625 -11.890625 1.65625 -14.828125 L 1.65625 -19.984375 C 1.65625 -22.960938 3.207031 -24.453125 6.3125 -24.453125 L 9.96875 -24.453125 C 13.101562 -24.453125 14.671875 -22.960938 14.671875 -19.984375 L 14.671875 -17.640625 L 10.265625 -17.640625 L 10.265625 -19.53125 C 10.265625 -20.132812 10.164062 -20.523438 9.96875 -20.703125 C 9.769531 -20.890625 9.367188 -20.984375 8.765625 -20.984375 L 7.5625 -20.984375 C 6.957031 -20.984375 6.554688 -20.890625 6.359375 -20.703125 C 6.160156 -20.523438 6.0625 -20.132812 6.0625 -19.53125 L 6.0625 -15.328125 C 6.0625 -14.722656 6.160156 -14.328125 6.359375 -14.140625 C 6.554688 -13.960938 6.957031 -13.875 7.5625 -13.875 L 10.171875 -13.875 C 13.242188 -13.875 14.78125 -12.390625 14.78125 -9.421875 L 14.78125 -4.40625 C 14.78125 -1.46875 13.226562 0 10.125 0 L 6.40625 0 C 3.300781 0 1.75 -1.46875 1.75 -4.40625 L 1.75 -6.8125 L 6.15625 -6.8125 L 6.15625 -4.90625 C 6.15625 -4.300781 6.253906 -3.90625 6.453125 -3.71875 C 6.660156 -3.539062 7.066406 -3.453125 7.671875 -3.453125 L 8.859375 -3.453125 C 9.460938 -3.453125 9.863281 -3.539062 10.0625 -3.71875 C 10.269531 -3.90625 10.375 -4.300781 10.375 -4.90625 Z M 10.375 -4.90625 "/></g></g></g></svg>